<?xml version="1.0" encoding="UTF-8"?>
<svg width="118.47mm" height="129.4mm" version="1.1" viewBox="0 0 118.47 129.4" xml:space="preserve" xmlns="http://www.w3.org/2000/svg" xmlns:xlink="http://www.w3.org/1999/xlink"><defs><clipPath id="a"><path d="m45.606 101.64v117.95h118.47v-117.95h-70.881c0.30632 0.31223 0.49591 0.85785 0.40928 1.619-0.04347 0.3821-0.10671 0.76306-0.28319 1.11-0.29007 0.51034-0.68311 0.91133-1.2216 1.1627-0.4244 0.21024-0.84327 0.43335-1.2821 0.61289-0.59531 0.24185-1.2115 0.43413-1.8448 0.54828-0.91687 0.16936-1.8317 0.35099-2.7435 0.54571-0.6671 0.14686-1.3374 0.28631-1.9544 0.59169-0.8078 0.37969-1.6005 0.79282-2.4288 1.1281-1.32 0.53243-2.6905 0.94468-4.0928 1.1963-0.2434 0.19712-0.58298 0.35308-1.034 0.42374 0.14167 0.2423-0.03248 0.58417-0.55707 0.61754-0.1373 8e-3 -0.07203 6e-3 -0.19586 9e-3 -0.19884 8e-3 -0.39738 0.0232-0.59531 0.0429-0.166 0.0166-0.33134 0.0392-0.49713 0.0579 0.0033 0.0173 0.0042 0.0371 0.0021 0.0589-0.0092 0.0929-0.06589 0.10355-0.12609 0.12764-0.04104 9e-3 -0.08309 0.01-0.12454 0.015-0.03755 7e-3 -0.07669 5e-3 -0.1142 0.0124-0.04402 8e-3 -0.08814 0.0125-0.13281 0.0155-0.05787 1e-3 -0.11541 9e-3 -0.17312 0.0124-0.06442 3e-3 -0.12908 6e-3 -0.19327 0.0119-0.06458 5e-3 -0.12906 0.0106-0.19327 0.0186-0.07806 0.0105-0.15576 0.022-0.2341 0.031-0.06622 7e-3 -0.13294 0.0104-0.19947 0.0124-0.05303 0-0.10532 4e-3 -0.15813 8e-3 -0.07597 0.0104-0.15207 0.0217-0.22841 0.0295-0.08722 6e-3 -0.1743 0.0137-0.26148 0.0207-0.07277 0.0161-0.14642 0.0281-0.21911 0.0444-0.12662 0.0244-0.25456 0.0416-0.3824 0.0584-0.01895 3e-3 -0.03797 6e-3 -0.05684 9e-3 -0.07375 0.0203-0.14905 0.0357-0.22118 0.061-0.15556 0.066-0.31025 0.13557-0.47232 0.18397-0.16188 0.0403-0.32596 0.0723-0.49041 0.10025-0.18276 0.0342-0.36696 0.0634-0.55346 0.0615v1e-3c-0.84893-7e-3 -0.8489-0.86782 0-0.85783 0.13329 2e-3 0.26485-0.0213 0.39532-0.046 0.14623-0.0266 0.29331-0.0515 0.43718-0.0894 0.02085-7e-3 0.04135-0.0162 0.06201-0.0243-0.19188-0.0727-0.29243-0.15122 0.0093-0.28216 0.11783-0.0511 0.24325-0.0816 0.36639-0.11678 0.12435-0.0327 0.24902-0.0622 0.37259-0.0977 0.06058-0.0171 0.12191-0.0315 0.18294-0.047 0.0036-0.0353 0.01008-0.0759 0.01913-0.1235-0.44808-2.1717-0.69658-2.0556 0.57826-2.128 0.04683-2e-3 0.09373-3e-3 0.14056-5e-3 0.29941-0.20199 0.73486-0.32808 1.3074-0.31161 0.69132 0.0199 1.3778-0.0498 2.0614-0.14418-0.14541-0.49967 0.09407-1.1806 0.92087-1.7508 0.22699-0.15654 0.45356-0.31266 0.69453-0.44751 0.58258-0.30939 1.1915-0.56506 1.804-0.80875 0.66516-0.27959 1.3331-0.55995 2.035-0.73534 0.67056-0.19817 1.3464-0.37796 2.0221-0.55759 1.3159-0.34942 2.617-0.75286 3.9367-1.0883 1.0036-0.27179 2.0056-0.56472 3.0231-0.77772 0.22034-0.0461 0.42292-0.0675 0.6072-0.0677 0.13501-1e-4 0.26 0.012 0.37517 0.0331 0.02434-0.0269 0.0459-0.0602 0.07131-0.0842zm76.601 1.2227h5.3e-4c0.074-2.1e-4 0.15944 0.0134 0.2651 0.046 0.16425 0.0505 0.29539 0.18369 0.41186 0.31006 0.0925 0.10037 0.13208 0.27224 0.15865 0.44183 0.1216 0.0151 0.25444 0.0485 0.3979 0.1049 0.2472 0.0972 0.46923 0.24943 0.69712 0.38396 0.0475 0.0282 0.0956 0.0556 0.14314 0.0837 0.14288-0.0995 0.34148-0.16031 0.5855-0.1571 0.14013 2e-3 0.29499 0.0252 0.46302 0.0744 0.27039 0.0792 0.53521 0.17718 0.79892 0.27595 0.78865 0.30293 1.564 0.63947 2.3446 0.96274 0.66691 0.26429 1.3268 0.54478 1.9751 0.85214 0.39558 0.19853 0.79497 0.38832 1.1999 0.56689 0.41162 0.18081 0.20827 0.0921 0.61081 0.26665 0.6636 0.28776 0.83468 0.77326 0.66766 1.0986 0.0673 0.0204 0.13422 0.0419 0.20154 0.062 0.13402 0.04 0.24435 0.092 0.34416 0.14832 0.2365 0.0193 0.47148 0.0589 0.7059 0.0946 0.36992 0.0519 0.74024 0.0999 1.1059 0.17725 0.19918 0.0502 0.10511 0.0254 0.2837 0.0744 0.75102 0.20595 0.96811 0.72005 0.78083 1.0718 0.21373 0.0108 0.42747 0.0203 0.64131 0.0279 0.26639 8e-3 0.13846 4e-3 0.38395 0.0109 0.88292 0.0243 1.1933 0.59554 0.95137 1.0046 0.13544 8e-3 0.27337 0.0138 0.40566 0.0383 3e-3 0-6e-3 1e-3 -9e-3 2e-3l5.3e-4 5.3e-4c-0.23378 0.0665-0.20648 0.18622-0.11162 0.30644h5.3e-4c0.0497 9e-3 0.0991 0.0176 0.14883 0.0264 0.65029 0.11453 0.53451 0.7715-0.11575 0.6568-0.052-9e-3 -0.10407-0.0184-0.15607-0.0274-0.11359-0.0213-0.22874-0.0379-0.33951-0.0718-0.0325-0.0104-0.0655-0.0206-0.0977-0.0315-8e-3 -3e-3 -0.0304-5e-3 -0.0279-8e-3 -1e-3 -2.4e-4 -2e-3 -7.9e-4 -4e-3 -1e-3l5.3e-4 -2e-3c-3e-3 -5.3e-4 -6e-3 7.9e-4 -9e-3 -2e-3 -0.0494 9e-3 -0.098 0.0181-0.15813 0.0165-0.23738-6e-3 -0.4747-0.0121-0.7121-0.0181-0.48793-0.013-1.0223-0.0262-1.5105-0.0434-0.37959-0.0134-0.59447-0.0205-0.94722-0.0465-0.11049-8e-3 -0.12165-0.0107-0.21343-0.0243v-1e-3c-0.26901-0.04-0.16403-0.13009-0.0124-0.22996-0.0749-0.0403-0.12627-0.0951-0.15348-0.15554-0.0419-6e-3 -0.084-0.0129-0.12609-0.0181-0.14348-0.0206-0.28671-0.0393-0.42995-0.061-0.16466-0.0165-0.3305-0.0319-0.49506-0.0491-0.22402-0.0225-0.44799-0.0448-0.67076-0.078-0.0763-0.0121-0.15306-0.0199-0.22996-0.0269-0.51104-0.0469-0.58127-0.455-0.28112-0.60772-0.18546-0.0532-0.36766-0.11474-0.54622-0.18862-0.27789-0.10965-0.55523-0.2211-0.83354-0.32969-0.42936-0.16894-0.8532-0.35179-1.2749-0.53899-0.51023-0.23669-1.0084-0.49769-1.4769-0.81028-0.46359-0.29748-0.93291-0.58609-1.4154-0.85215-0.29686-0.16134-0.60526-0.30298-0.92397-0.41599-0.32162-0.11342-0.64467-0.22711-0.97927-0.29611-0.23646-0.0439-0.47438-0.0772-0.71572-0.0672h-0.38964c-0.8536 0-1.1852-0.52537-0.99839-0.93586-0.0269-0.0196-0.0529-0.0316-0.0801-0.0537-0.0745-0.0606-0.15181-0.11794-0.22272-0.18294-0.0934-0.0942-0.13111-0.12528-0.20619-0.23358-0.0111 0.0435-0.0225 0.0868-0.0336 0.13023-0.0503 0.20316-0.0991 0.40696-0.15865 0.60771-0.0299 0.10112-0.106 0.36132-0.16381 0.44752-0.0808 0.1204-0.1871 0.22148-0.2806 0.33228-0.3626-0.11337-0.75686-0.15344-1.0878-0.34003-0.0904-0.051-0.0478-0.20263-0.0579-0.30592-7e-3 -0.0692 3e-3 -0.13948 8e-3 -0.20878 0.0246-0.314 0.0848-0.62388 0.12867-0.93534 0.0563-0.34128 0.0938-0.69235 0.20722-1.0206h-5.3e-4c0.18642-0.53968 0.52858-0.78204 0.83406-0.79117 0.0597-0.0763 0.12298-0.14982 0.1912-0.21859 0.039-0.0394 0.0817-0.075 0.12247-0.11265 0.18679-0.111 0.30132-0.2046 0.49041-0.20567zm-47.447 8.4553c-0.0074 7.9e-4 -0.01482 2e-3 -0.02222 3e-3 4e-3 0.02 0.0078 0.0369 0.01138 0.0506 0.0062-5e-3 0.01117-9e-3 0.0181-0.015-0.0026-0.0126-0.0051-0.0255-0.0072-0.0382zm-0.12196 0.14418c0.0047 3e-3 0.0098 5e-3 0.01497 6e-3 0.0011 0-0.0021-2e-3 -0.0031-2e-3 -4e-3 -2e-3 -0.0077-3e-3 -0.01188-4e-3zm40.816 8.7772h5.3e-4c0.35213 2.6e-4 0.70335 0.35005 0.70435 1.0501 0 0.0872 2e-3 0.17431 3e-3 0.26148 0.0381-0.0674 0.077-0.0952 0.11628-0.0925 0.12838 9e-3 0.26592 0.33948 0.41185 0.64906 0.47147 0.0768 0.89561 0.12011 0.50128-0.40773-0.0176-0.0235-0.0372-0.0458-0.0527-0.0708-1e-3 -2e-3 -2e-3 -3e-3 -2e-3 -3e-3 1e-3 -3e-3 0.0316 0.0269 0.0444 0.0362 0.0755 0.0544 0.15046 0.10632 0.22996 0.15503 0.45771 0.25341 0.9347 0.46945 1.4123 0.68213 0.41015 0.18293 0.82478 0.35561 1.2377 0.53226 0.0317-2e-3 0.0595-9e-3 0.093-9e-3 0.0773-1e-3 0.15909 4e-3 0.24598 0.0145 0.17095 0.0211 0.086 9e-3 0.25632 0.0357 0.3621 0.0657 0.71851 0.15801 1.062 0.29197 0.194 0.0795 0.28443 0.10965 0.46715 0.21187 0.28612 0.16003 0.53067 0.37265 0.74466 0.62012 0.0485 0.0574 0.0985 0.11406 0.14625 0.17208-0.21089-0.73803 0.12663-1.1867 0.53536-1.1865v-1e-3c0.3058 1.4e-4 0.64881 0.24975 0.82631 0.81338 0.048 0.15229 0.0913 0.30604 0.13591 0.45941 0.034 0.0357 0.0709 0.0801 0.11214 0.13642 0.0434 0.0594 0.09 0.11659 0.13022 0.17829 0.0179 0.0274 0.0715 0.14773 0.0853 0.17983 0.0145 0.0338 0.0273 0.0683 0.0413 0.10232 0.0594 0.0428 0.11984 0.0914 0.18087 0.14624 0.12274 0.11022 0.2239 0.23813 0.3054 0.38189 0.0331 0.0584 0.0602 0.11994 0.0904 0.17984 0.0296 0.069 0.0606 0.13762 0.0889 0.20722 0.0418 0.10281 0.15163 0.39515 0.18914 0.49196 0.12272 0.3164 0.25069 0.63068 0.37568 0.94619 0.0803 0.20672 0.16662 0.41088 0.25322 0.61495 0.10007 0.11037 0.18495 0.23363 0.27027 0.35554 0.029 0.0423 0.0591 0.0842 0.0873 0.12712 3e-3 5e-3 7e-3 0.01 0.01 0.015 0.11696 0.0529 0.23564 0.13138 0.35243 0.24081 0.11943 0.11192 0.071 0.0621 0.14986 0.14728 0.0631 0.069 0.12395 0.14032 0.19535 0.20102 0.12086 0.10569 0.23816 0.21516 0.36122 0.31833 0.0732 0.0628 0.0731 0.0628 0.0703 0.0605 9e-5 1e-5 1e-3 8e-4 2e-3 2e-3 3e-3 3e-3 0.0142 0.0128 0.0522 0.046 0.0307 0.0269 0.0665 0.0485 0.093 0.0796 1e-3 1e-3 2.6e-4 1e-3 0 1e-3v5.3e-4c0.66437 0.44664 0.6826 1.0314 0.36018 1.296-0.0136 0.0613-0.0345 0.1181-0.063 0.16846-0.0208 0.42929-0.39068 0.67994-0.82476 0.53021-0.29528 0.32837-0.89544 0.25206-1.2573-0.50747-0.1971-0.41385-0.39758-0.8265-0.59169-1.2418-5e-3 -0.0113-0.0103-0.0228-0.0155-0.0341-0.13987-0.13489-0.27543-0.27323-0.40514-0.41806-0.20597-0.23201-0.38375-0.48675-0.56431-0.73844-0.0245-0.0346-0.0446-0.0719-0.0682-0.10698-0.33243 0.24238-0.8934 0.0691-1.1777-0.68781-0.0656-0.17457-0.14196-0.34467-0.22375-0.51211-0.10263-0.0222-0.2116-0.0574-0.3266-0.1075-0.54961-0.23963-1.1025-0.47154-1.6505-0.71468-0.69002-0.3089-1.3878-0.6087-2.0412-0.99115-0.10288-0.0614-0.20645-0.1213-0.30851-0.18397-0.48493-0.29804-0.95043-0.62663-1.4278-0.93637-5e-3 0.0109-0.0106 0.0215-0.016 0.0325-0.0316 0.0629-0.0594 0.12875-0.10025 0.18605-0.071 0.0998-0.15568 0.18869-0.23358 0.28319-0.25134-0.0357-0.51471-0.0281-0.76533-0.0667-0.30359 0.60922-1.1506 0.48251-1.3105-0.57154-0.0269-0.17697-0.0571-0.35356-0.0827-0.53071-0.0394-0.31352-0.0874-0.62607-0.12764-0.93949-0.0433-0.33058-0.085-0.66184-0.0982-0.99528-6e-3 -0.17876-7e-3 -0.35753-6e-3 -0.5364 5e-3 -0.69966 0.35707-1.0494 0.709-1.0501zm-21.193 1.5069c0.1516 0 0.30334 0.14995 0.30334 0.4501v3.6106c0 0.6003-0.60616 0.6003-0.60616 0v-0.79633c-0.05455 0.081-0.08797 0.10743-0.26872 0.0956-0.04706-3e-3 -0.08565-0.0408-0.12402-0.0682-0.04964-0.0355-0.10159-0.12517-0.13384-0.17777-0.03476-0.0604-0.0647-0.12312-0.0956-0.18552-0.0035-7e-3 -0.0069-0.0145-0.01035-0.0217-0.01595 4e-3 -0.03299 6e-3 -0.04909 0.0104-0.10249 0.027-0.11649 0.0331-0.22376 0.0672-0.31097 0.11216-0.62268 0.2226-0.93379 0.33435-0.09481 0.034-0.19002 0.0674-0.28474 0.1018-0.05183 0.27786-0.10879 0.55477-0.16536 0.83096-0.05488 0.26024-0.10634 0.52172-0.17311 0.77928-0.01423 0.0549-0.07429 0.28095-0.10904 0.33745-0.04946 0.0804-0.11644 0.14842-0.17467 0.22272-0.24902-0.0628-0.52742-0.0544-0.74672-0.1881-0.09276-0.0565-0.06164-0.20929-0.08062-0.31626-0.01648-0.0929-0.01884-0.18754-0.02585-0.28164-0.0076-0.10248-0.0089-0.20533-0.01394-0.30799-0.10952 0.0585-0.21941 0.11631-0.32866 0.17518-0.11101 0.0589-0.22245 0.11755-0.33435 0.17519-0.15061 0.2848-0.29702 0.57199-0.4408 0.86041-0.0052 0.0468-0.01148 0.0911-0.04392 0.0884-0.01029 0.0207-0.02074 0.0413-0.03101 0.062-0.28234-0.13924-0.58931-0.23668-0.84698-0.41755-0.0026-2e-3 -7.94e-4 -5e-3 -0.0026-7e-3 -0.0095 3e-3 -0.01894 6e-3 -0.02842 9e-3 -0.19757 0.0539-0.39771 0.11035-0.60152 0.13643-0.17012 0.19168-0.32496 0.37007-0.51366 0.55655-0.01897 0.0187-0.0383 0.0371-0.05736 0.0558 0.23883 0.0866 0.25344 0.41827-0.13694 0.59376-0.01836 8e-3 -0.03692 0.0161-0.05529 0.0243-0.01156 0.0366-0.02543 0.0745-0.04186 0.11317-0.06045 0.14235-0.02773 0.0694-0.0987 0.22014-0.04948 0.0882-0.08735 0.16395-0.15658 0.24185-0.11853 0.13334-0.27675 0.22548-0.45579 0.24598-0.06106 7e-3 -0.12302-2e-3 -0.18448-2e-3 -0.06241-0.0177-0.12787-0.0267-0.18707-0.0532-0.06882-0.0309-0.12858-0.0713-0.1819-0.11834-0.05112 0.0311-0.10053 0.0651-0.15348 0.093-0.16366 0.0805-0.33262 0.14945-0.50074 0.22015-0.01646 0.49831-0.40814 0.58125-0.55346 0.24908-0.05742 0.027-0.11556 0.0524-0.17312 0.0791-0.14843 0.16772-0.29055 0.21653-0.39171 0.18449-0.03981 0.0223-0.07954 0.0448-0.11989 0.0661-0.06774 0.0725-0.14303 0.11002-0.21394 0.11782-0.06791 0.0383-0.13824 0.0722-0.20464 0.11318-0.2137 0.14077-0.42626 0.28834-0.6041 0.47387-0.04637 0.0493-0.10876 0.10301-0.14728 0.16071-0.0052 8e-3 -0.0091 0.0163-0.01291 0.0253-0.0055 0.0125-0.0029 0.0322-0.0155 0.0372-0.01106 5e-3 0.0056-0.0224 0.0083-0.0341 0.13508-0.58469-0.74321 0.46282-0.5948-0.11885 0.04991-0.1956 0.18564-0.34144 0.31988-0.48524 0.20957-0.22114 0.45961-0.39749 0.71262-0.56483 0.10612-0.0662 0.21815-0.12179 0.32763-0.1819 0.02479-0.0571 0.04969-0.11398 0.07442-0.17105 0.1872-0.44297 0.38061-0.88327 0.57309-1.324 0.09334-0.22012 0.18659-0.44041 0.2837-0.65887 0.08477-0.2016 0.16082-0.40685 0.2341-0.61288 0.02748-0.0825 0.05492-0.16518 0.07803-0.24908 0.0049-0.0178 0.0079-0.0362 0.01344-0.0537 5.29e-4 -2e-3 0.0032-3e-3 0.0036-2e-3 0.0032 0.0103 0.0039 0.0209 0.0057 0.0315v5.3e-4c0.08069 0.47151 0.40496-0.253 0.5395-0.26303 0.0343-3e-3 0.05591 0.0414 0.0584 0.1633 7.94e-4 0.0329 0.0044 0.0658 0.0021 0.0987-0.0016 0.0207-0.01082 0.0452-0.01447 0.0672 0.03041-0.052 0.0613-0.10375 0.09198-0.15555 0.16879-0.27933 0.08727-0.14457 0.24495-0.40669 0.11119-0.18492 0.24964-0.26276 0.3669-0.26303 0.02596-9e-5 0.05105 4e-3 0.07441 0.0108 0.0041-0.022 8e-3 -0.0439 0.01188-0.0661 0.01585-0.09 0.04529-0.15756 0.07958-0.21497-0.29192-0.30518-0.04021-0.79964 0.64596-0.71572 0.04818 6e-3 0.09622 9e-3 0.14418 9e-3 0.09131-0.0914 0.1896-0.13687 0.27698-0.14159 0.0067-2.6e-4 0.0131-5.3e-4 0.01963-5.3e-4 0.07764 1e-3 0.13768 0.0414 0.18087 0.0982 0.0093-1e-3 0.0186-3e-3 0.0279-4e-3 0.3541-0.0572 0.70134-0.14308 1.0449-0.24339 0.08093-0.10516 0.16118-0.21087 0.24753-0.31161 0.04136-0.0483 0.07883-0.10115 0.12868-0.14056 0.07034-0.0557 0.14145-0.16411 0.22841-0.14211 0.17119 0.0433 0.31944 0.14411 0.46819 0.2439 0.27808-0.0968 0.5555-0.19567 0.83147-0.29816 0.06476-0.0808 0.13094-0.16254 0.22634-0.16848 0.05966-4e-3 0.11976 8e-3 0.17984 0.015 0.02947-0.0114 0.059-0.0226 0.08836-0.0341 0.10069-0.0428 0.2024-0.0838 0.30386-0.12505-0.0071-0.22115-0.01384-0.44252-0.03721-0.66249-0.04935-0.4643 0.15571-0.69585 0.38861-0.69558v-5.2e-4c0.2329 2.4e-4 0.49345 0.23215 0.55449 0.69505 0.0061 0.0463 0.0076 0.0949 0.01188 0.14211 0.13872-0.11456 0.29045-0.21058 0.44286-0.30542 0.14316-0.0906 0.29904-0.15776 0.45476-0.22323 0.13454-0.0491 0.26927-0.0975 0.40359-0.14729 0.06995-0.027 0.14202-0.0459 0.21446-0.0646 0.0989-0.0255 0.19008-0.037 0.27234-0.0372 0.06899-1.4e-4 0.13162 8e-3 0.1881 0.0222v-0.13694c0-0.30015 0.15122-0.4501 0.30282-0.4501zm23.454 2.1575c4e-3 -7e-3 -0.0111 0.0164-0.0171 0.0243-2.6e-4 7.9e-4 -5.2e-4 2e-3 -1e-3 3e-3 7e-3 -0.0105 0.0101-0.0155 0.0181-0.0274zm-26.011 0.16226c0.0011 2.6e-4 0.0029 1e-3 0.0057 3e-3 -0.0028-1e-3 -0.0048-2e-3 -0.0057-3e-3zm1.5803 0.52038c0.01069 0.0226 0.0056 0.014 0.01601 0.0202-0.0048-7e-3 -0.01013-0.014-0.01601-0.0202zm0.25115 0.20154c-7.94e-4 8e-3 -0.0033 0.0162-0.0021 0.0238 0.0013 8e-3 0.0016-0.0158 0.0021-0.0238z" fill="#f00"/></clipPath></defs><g transform="translate(-45.606 -90.191)" display="none"><image x="36.012" y="80.195" width="140.73" height="140.73" preserveAspectRatio="none" xlink:href="b_on.png"/></g><path transform="translate(-45.606 -90.191)" d="m97.262 102.39c-0.694 0.10205-1.3872 0.22299-2.08 0.35243a58.484 58.484 0 0 1 2.08-0.35243zm15.346 8e-3a58.484 58.484 0 0 1 2.0707 0.3576c-0.69074-0.13142-1.3812-0.25423-2.0707-0.3576zm-20.696 1.063a58.484 58.484 0 0 0-15.978 6.2131c0.11957 3.6e-4 0.23906 1e-3 0.35864 2e-3 5.173-2.8195 10.379-4.9093 15.619-6.2146zm28.93 0.84646c5.6675 1.757 11.377 4.4621 17.132 8.185-12.517-1.512-14.927 9.9636-10.011 16.367a38.575 38.575 0 0 1 16.125 31.368 38.575 38.575 0 0 1-38.575 38.575 38.575 38.575 0 0 1-38.575-38.575 38.575 38.575 0 0 1 15.864-31.148c3.1455-4.9444 1.8102-18.714-11.304-16.587a58.484 58.484 0 0 0-25.142 47.87 58.484 58.484 0 0 0 58.484 58.483 58.484 58.484 0 0 0 58.483-58.483 58.484 58.484 0 0 0-42.481-56.055zm-49.345 8.185c0.31256-0.19858 0.62563-0.38311 0.93844-0.57516h-0.10904a58.484 58.484 0 0 0-0.82941 0.57516zm11.304 16.587c-0.30853 0.48498-0.65801 0.88905-1.0459 1.1808 3.8295-2.8678 7.741-5.1285 11.749-6.6709a38.575 38.575 0 0 0-10.703 5.4901zm10.703-5.4901a38.575 38.575 0 0 1 12.008-1.9368 38.575 38.575 0 0 1 13.643 2.4934c-9.042-3.8311-17.546-3.6754-25.651-0.55656zm25.651 0.55656c2.9837 1.2642 6.0254 2.956 9.1312 5.1253-0.11291-0.1333-0.21738-0.27263-0.32349-0.41083a38.575 38.575 0 0 0-8.8077-4.7144z" clip-path="url(#a)" fill="#71797e" stroke="#000" stroke-dashoffset="7.4079" stroke-width="1.5"/><rect x="49.527" y=".75" width="19.263" height="69.674" ry="8.9899" fill="#71797e" stroke="#000" stroke-dashoffset="7.4079" stroke-width="1.5"/></svg>